<svg width="20" height="16" viewBox="0 0 20 16" fill="none" xmlns="http://www.w3.org/2000/svg">
<path fill-rule="evenodd" clip-rule="evenodd" d="M3.84667 0H16.1533C18.2748 0.0073153 19.9927 1.72525 20 3.84667V12.1533C19.9927 14.2748 18.2748 15.9927 16.1533 16H3.84667C1.72525 15.9927 0.0073153 14.2748 0 12.1533V3.84667C0.0073153 1.72525 1.72525 0.0073153 3.84667 0ZM3.33333 13.8667L5.25333 11.92L5.26 11.9C5.47079 11.6892 5.55311 11.382 5.47596 11.094C5.3988 10.8061 5.17389 10.5812 4.88595 10.504C4.59802 10.4269 4.29079 10.5092 4.08 10.72L2.13333 12.6667C2.33539 13.225 2.77504 13.6646 3.33333 13.8667ZM16.6667 13.8667L14.72 11.92C14.3942 11.5942 14.3942 11.0658 14.72 10.74C15.0458 10.4142 15.5742 10.4142 15.9 10.74L17.8667 12.6667C17.6646 13.225 17.225 13.6646 16.6667 13.8667ZM13.2933 8.84667L18 4.34V4C17.997 3.35629 17.6844 2.75335 17.16 2.38L11.9 7.42667C10.7554 8.56664 8.90458 8.56664 7.76 7.42667L2.80667 2.40667C2.30241 2.78157 2.00367 3.37166 2 4V4.44L6.33333 8.84667C8.25798 10.7621 11.3687 10.7621 13.2933 8.84667Z" fill="#FFFEFE"/>
</svg>
