<svg width="135" height="40" viewBox="0 0 135 40" fill="none" xmlns="http://www.w3.org/2000/svg">
<rect y="-3.05176e-05" width="135" height="40" rx="5" fill="black"/>
<path fill-rule="evenodd" clip-rule="evenodd" d="M5 -3.05176e-05H130C132.761 -3.05176e-05 135 2.23855 135 4.99997V35C135 37.7614 132.761 40 130 40H5C2.23858 40 0 37.7614 0 35V4.99997C0 2.23855 2.23858 -3.05176e-05 5 -3.05176e-05ZM134.2 4.99997C134.2 2.68037 132.32 0.799969 130 0.799969H5C2.6804 0.799969 0.8 2.68037 0.8 4.99997V35C0.8 37.3196 2.6804 39.2 5 39.2H130C132.32 39.2 134.2 37.3196 134.2 35V4.99997Z" fill="#A6A6A6"/>
<path d="M47.4201 10.24C47.4533 10.981 47.1824 11.7035 46.6701 12.24C46.0955 12.8332 45.2953 13.1533 44.4701 13.12C43.6407 13.1385 42.8406 12.8126 42.2601 12.22C41.6612 11.6388 41.3314 10.8343 41.3501 9.99997C41.3286 9.16215 41.6586 8.35356 42.2601 7.76997C43.171 6.87988 44.5272 6.62362 45.7001 7.11997C46.0607 7.2682 46.3823 7.49745 46.6401 7.78997L46.1101 8.31997C45.7075 7.83492 45.0997 7.56809 44.4701 7.59997C43.839 7.59687 43.2338 7.85105 42.7941 8.30391C42.3545 8.75676 42.1183 9.36918 42.1401 9.99997C42.1267 10.9532 42.6881 11.8208 43.563 12.1992C44.438 12.5776 45.4547 12.3925 46.1401 11.73C46.4485 11.396 46.6291 10.964 46.6501 10.51H44.4701V9.78997H47.3801C47.4025 9.93903 47.4158 10.0893 47.4201 10.24Z" fill="white" stroke="white" stroke-width="0.2"/>
<path d="M52 7.73997H49.3V9.63997H51.76V10.36H49.3V12.26H52V13H48.52V6.99997H52V7.73997Z" fill="white" stroke="white" stroke-width="0.2"/>
<path d="M55.2801 13H54.5101V7.73997H52.8301V6.99997H57.0001V7.73997H55.2801V13Z" fill="white" stroke="white" stroke-width="0.2"/>
<path d="M59.9402 13V6.99997H60.7102V13H59.9402Z" fill="white" stroke="white" stroke-width="0.2"/>
<path d="M64.1302 13H63.3602V7.73997H61.6802V6.99997H65.8002V7.73997H64.1302V13Z" fill="white" stroke="white" stroke-width="0.2"/>
<path fill-rule="evenodd" clip-rule="evenodd" d="M71.4101 13.1318C72.2354 13.1318 73.0268 12.8037 73.6101 12.22C74.1981 11.6336 74.5167 10.8299 74.4901 9.99996C74.5084 9.17153 74.1911 8.37087 73.6101 7.77996C73.0337 7.18617 72.2376 6.85687 71.4101 6.86996C70.5811 6.84826 69.7816 7.17894 69.2101 7.77996C68.6222 8.3663 68.3036 9.17007 68.3301 9.99996C68.3036 10.8299 68.6222 11.6336 69.2101 12.22C69.7935 12.8037 70.5849 13.1318 71.4101 13.1318ZM71.4101 12.4015C70.7975 12.4015 70.2104 12.156 69.7801 11.72C69.3326 11.2614 69.0907 10.6405 69.1101 9.99996C69.08 9.36519 69.3071 8.74509 69.7401 8.27996C70.1704 7.8439 70.7575 7.59844 71.3701 7.59844C71.9828 7.59844 72.5698 7.8439 73.0001 8.27996C73.4624 8.73186 73.719 9.35359 73.7101 9.99996C73.7296 10.6405 73.4877 11.2614 73.0401 11.72C72.6098 12.156 72.0228 12.4015 71.4101 12.4015Z" fill="white"/>
<path d="M73.6101 12.22L73.5395 12.1492L73.5394 12.1493L73.6101 12.22ZM74.4901 9.99996L74.39 9.99775L74.3902 10.0032L74.4901 9.99996ZM73.6101 7.77996L73.5384 7.84962L73.5388 7.85007L73.6101 7.77996ZM71.4101 6.86996L71.4075 6.97002L71.4117 6.96995L71.4101 6.86996ZM69.2101 7.77996L69.2808 7.85079L69.2826 7.84887L69.2101 7.77996ZM68.3301 9.99996L68.4303 10.0032L68.4301 9.99677L68.3301 9.99996ZM69.2101 12.22L69.2809 12.1493L69.2808 12.1492L69.2101 12.22ZM69.7801 11.72L69.7086 11.7898L69.709 11.7902L69.7801 11.72ZM69.1101 9.99996L69.2104 10.003L69.21 9.99522L69.1101 9.99996ZM69.7401 8.27996L69.6689 8.20969L69.667 8.21182L69.7401 8.27996ZM73.0001 8.27996L72.929 8.35021L72.9302 8.35147L73.0001 8.27996ZM73.7101 9.99996L73.6101 9.99859L73.6102 10.003L73.7101 9.99996ZM73.0401 11.72L73.1113 11.7902L73.1117 11.7898L73.0401 11.72ZM73.5394 12.1493C72.9749 12.7143 72.2089 13.0318 71.4101 13.0318V13.2318C72.2619 13.2318 73.0788 12.8932 73.6809 12.2906L73.5394 12.1493ZM74.3902 10.0032C74.4158 10.8054 74.1078 11.5824 73.5395 12.1492L73.6808 12.2908C74.2883 11.6849 74.6175 10.8543 74.5901 9.99677L74.3902 10.0032ZM73.5388 7.85007C74.1008 8.42173 74.4079 9.1963 74.3902 9.99775L74.5901 10.0022C74.609 9.14675 74.2813 8.32002 73.6815 7.70986L73.5388 7.85007ZM71.4117 6.96995C72.2116 6.9573 72.9812 7.27562 73.5384 7.84962L73.6819 7.71031C73.0863 7.09673 72.2636 6.75645 71.4086 6.76997L71.4117 6.96995ZM69.2826 7.84887C69.8346 7.26836 70.6068 6.94897 71.4075 6.96993L71.4128 6.77C70.5554 6.74756 69.7287 7.08952 69.1377 7.71105L69.2826 7.84887ZM68.4301 9.99677C68.4045 9.19454 68.7124 8.41756 69.2808 7.85077L69.1395 7.70916C68.532 8.31504 68.2028 9.1456 68.2302 10.0032L68.4301 9.99677ZM69.2808 12.1492C68.7124 11.5824 68.4045 10.8054 68.4301 10.0032L68.2302 9.99677C68.2028 10.8543 68.532 11.6849 69.1395 12.2908L69.2808 12.1492ZM71.4101 13.0318C70.6114 13.0318 69.8454 12.7143 69.2809 12.1493L69.1394 12.2906C69.7415 12.8932 70.5583 13.2318 71.4101 13.2318V13.0318ZM69.709 11.7902C70.1581 12.2453 70.7708 12.5015 71.4101 12.5015V12.3015C70.8243 12.3015 70.2628 12.0667 69.8513 11.6497L69.709 11.7902ZM69.0102 9.99693C68.9899 10.6646 69.242 11.3118 69.7086 11.7898L69.8517 11.6501C69.4231 11.211 69.1915 10.6164 69.2101 10.003L69.0102 9.99693ZM69.667 8.21182C69.2156 8.69666 68.9788 9.34304 69.0103 10.0047L69.21 9.99522C69.1812 9.38735 69.3987 8.79352 69.8133 8.3481L69.667 8.21182ZM71.3701 7.49844C70.7308 7.49844 70.1181 7.75462 69.669 8.20972L69.8113 8.3502C70.2228 7.93319 70.7843 7.69844 71.3701 7.69844V7.49844ZM73.0713 8.20972C72.6222 7.75462 72.0095 7.49844 71.3701 7.49844V7.69844C71.956 7.69844 72.5175 7.93319 72.929 8.3502L73.0713 8.20972ZM73.8101 10.0013C73.8194 9.32757 73.5519 8.6795 73.0701 8.20846L72.9302 8.35147C73.3729 8.78422 73.6187 9.3796 73.6102 9.99859L73.8101 10.0013ZM73.1117 11.7898C73.5783 11.3118 73.8304 10.6646 73.8101 9.99693L73.6102 10.003C73.6288 10.6164 73.3972 11.211 72.9686 11.6501L73.1117 11.7898ZM71.4101 12.5015C72.0495 12.5015 72.6622 12.2453 73.1113 11.7902L72.969 11.6497C72.5575 12.0667 71.996 12.3015 71.4101 12.3015V12.5015Z" fill="white"/>
<path d="M75.5801 13V6.99997H76.5101L79.4301 11.67V10.51V6.99997H80.2001V13H79.4001L76.3501 8.10997V9.25997V13H75.5801Z" fill="white" stroke="white" stroke-width="0.2"/>
<path fill-rule="evenodd" clip-rule="evenodd" d="M47.7401 23.06V24.86H52.0601C51.9924 25.7078 51.6399 26.5078 51.0601 27.13C50.1837 28.0228 48.9701 28.5025 47.7201 28.45C45.0691 28.45 42.9201 26.3009 42.9201 23.65C42.9201 20.999 45.0691 18.85 47.7201 18.85C48.9405 18.8318 50.119 19.2953 51.0001 20.14L52.2701 18.87C51.0661 17.6791 49.4333 17.0231 47.7401 17.05C45.3191 16.9558 43.0405 18.1936 41.802 20.276C40.5634 22.3584 40.5634 24.9515 41.802 27.0339C43.0405 29.1163 45.3191 30.3542 47.7401 30.26C49.4703 30.3291 51.1476 29.656 52.3501 28.41C53.4002 27.2564 53.9598 25.7392 53.9101 24.18C53.9137 23.8047 53.8836 23.4299 53.8201 23.06H47.7401ZM58.8201 21.75C56.4674 21.7555 54.5646 23.6672 54.5701 26.02C54.5756 28.3727 56.4874 30.2755 58.8401 30.2699C61.1928 30.2644 63.0956 28.3527 63.0901 26C63.1066 24.8643 62.6613 23.7707 61.8564 22.9695C61.0514 22.1683 59.9556 21.7282 58.8201 21.75ZM63.8901 26.02C63.8846 23.6672 65.7874 21.7555 68.1401 21.75C69.2756 21.7282 70.3714 22.1683 71.1764 22.9695C71.9813 23.7707 72.4266 24.8643 72.4101 26C72.4156 28.3527 70.5128 30.2644 68.1601 30.2699C65.8074 30.2755 63.8956 28.3727 63.8901 26.02ZM65.6321 27.1184C66.0888 28.0743 67.0833 28.6539 68.1401 28.58C68.8034 28.5646 69.4323 28.2819 69.8842 27.7962C70.3361 27.3104 70.5726 26.6626 70.5401 26C70.5375 24.9406 69.8876 23.9905 68.9013 23.6041C67.9149 23.2176 66.7926 23.4734 66.0711 24.249C65.3495 25.0247 65.1755 26.1625 65.6321 27.1184ZM56.3121 27.1184C56.7688 28.0743 57.7633 28.6539 58.8201 28.58C59.4834 28.5646 60.1123 28.2819 60.5642 27.7962C61.0161 27.3104 61.2526 26.6626 61.2201 26C61.2175 24.9406 60.5676 23.9905 59.5813 23.6041C58.5949 23.2176 57.4726 23.4734 56.7511 24.249C56.0295 25.0247 55.8555 26.1625 56.3121 27.1184ZM89.4101 21.75C91.068 21.811 92.5162 22.8892 93.0501 24.46L93.2601 24.9L87.5701 27.25C87.9245 28.0641 88.7429 28.5766 89.6301 28.54C90.485 28.5483 91.2803 28.1031 91.7201 27.37L93.1701 28.37C92.1372 29.9347 90.1975 30.6328 88.4044 30.0851C86.6112 29.5375 85.3925 27.8748 85.4101 26C85.341 24.8965 85.7317 23.8136 86.4895 23.0085C87.2472 22.2034 88.3045 21.7478 89.4101 21.75ZM87.2501 25.88C87.2092 25.2535 87.4228 24.637 87.8426 24.1701C88.2624 23.7033 88.8528 23.4256 89.4801 23.4C90.1366 23.358 90.7546 23.7123 91.0501 24.3L87.2501 25.88ZM84.5001 30H82.6301V17.5H84.5001V30ZM79.5701 22.7H79.5001C78.9256 22.0747 78.1089 21.7283 77.2601 21.75C74.9902 21.86 73.2064 23.7325 73.2064 26.005C73.2064 28.2775 74.9902 30.1499 77.2601 30.26C78.1185 30.2772 78.9398 29.9105 79.5001 29.26H79.5701V29.87C79.5701 31.5 78.7001 32.37 77.3001 32.37C76.3436 32.349 75.4944 31.7526 75.1501 30.86L73.5301 31.53C74.1432 33.07 75.6427 34.0722 77.3001 34.05C79.4901 34.05 81.3001 32.76 81.3001 29.62V22H79.5701V22.7ZM75.0006 26.005C75.0006 27.3675 76.0602 28.4952 77.4201 28.58C78.07 28.555 78.6814 28.2651 79.1121 27.7778C79.5428 27.2904 79.7552 26.648 79.7001 26C79.7495 25.3542 79.5347 24.7161 79.1049 24.2316C78.6751 23.7472 78.0671 23.4579 77.4201 23.43C76.0602 23.5148 75.0006 24.6424 75.0006 26.005ZM101.81 17.5H97.3301V30H99.2001V25.26H101.81C103.263 25.3643 104.652 24.6485 105.41 23.4049C106.168 22.1614 106.168 20.5985 105.41 19.355C104.652 18.1115 103.263 17.3956 101.81 17.5ZM99.2001 23.5H101.81L101.85 23.52C103.032 23.52 103.99 22.5619 103.99 21.38C103.99 20.1981 103.032 19.24 101.85 19.24H99.2001V23.5ZM113.35 21.71C111.958 21.6241 110.649 22.3752 110.02 23.62L111.67 24.31C112.011 23.6959 112.681 23.3395 113.38 23.4C113.86 23.344 114.342 23.4829 114.718 23.7857C115.094 24.0884 115.332 24.5295 115.38 25.01V25.13C114.779 24.8139 114.109 24.6491 113.43 24.65C111.65 24.65 109.83 25.65 109.83 27.47C109.866 28.2516 110.217 28.9853 110.803 29.5036C111.389 30.0219 112.16 30.2803 112.94 30.22C113.896 30.2728 114.805 29.8065 115.32 29H115.38V30H117.18V25.19C117.18 23 115.52 21.73 113.39 21.73L113.35 21.71ZM111.66 27.5C111.66 28.25 112.51 28.56 113.12 28.56L113.16 28.58C114.29 28.5574 115.23 27.7031 115.36 26.58C114.841 26.2904 114.254 26.1453 113.66 26.16C112.72 26.16 111.66 26.5 111.66 27.5ZM123.74 22L121.6 27.42H121.54L119.32 22H117.32L120.65 29.58L118.75 33.79H120.75L125.82 22H123.74ZM108.8 30H106.94V17.5H108.8V30Z" fill="white"/>
<path d="M10.4402 7.53997C10.1214 7.93403 9.96415 8.43441 10.0002 8.93997V31.06C9.96615 31.5704 10.1351 32.0735 10.4702 32.46L10.5402 32.54L22.9002 20.15V19.85L10.5102 7.46997L10.4402 7.53997Z" fill="url(#paint0_linear)"/>
<path d="M26.9999 24.28L22.8999 20.15V19.85L26.9999 15.72L27.0899 15.78L31.9999 18.56C33.3999 19.35 33.3999 20.65 31.9999 21.45L27.1099 24.23L26.9999 24.28Z" fill="url(#paint1_linear)"/>
<path d="M27.1199 24.23L22.8999 20L10.4399 32.46C11.023 32.9789 11.8932 33.0084 12.5099 32.53L27.1199 24.23Z" fill="url(#paint2_linear)"/>
<path d="M27.1199 15.78L12.5099 7.47997C11.8969 6.99469 11.0238 7.02 10.4399 7.53997L22.8999 20L27.1199 15.78Z" fill="url(#paint3_linear)"/>
<path opacity="0.2" d="M26.9999 24.13L12.5099 32.38C11.9181 32.8267 11.1018 32.8267 10.5099 32.38L10.4399 32.45L10.5099 32.53C11.1018 32.9767 11.9181 32.9767 12.5099 32.53L27.1199 24.23L26.9999 24.13Z" fill="black"/>
<path opacity="0.12" d="M10.44 32.32C10.1188 31.9233 9.96134 31.4189 9.99996 30.91V31.06C9.96593 31.5704 10.1349 32.0735 10.47 32.46L10.54 32.39L10.44 32.32Z" fill="black"/>
<path opacity="0.12" d="M32 21.3L27 24.13L27.09 24.23L32 21.44C32.5904 21.1903 32.9971 20.6379 33.06 20C32.9332 20.5771 32.5398 21.0596 32 21.3Z" fill="black"/>
<path opacity="0.25" d="M12.51 7.61998L32 18.7C32.5398 18.9403 32.9332 19.4229 33.06 20C32.9971 19.3621 32.5904 18.8096 32 18.56L12.51 7.47998C11.12 6.67998 10 7.33998 10 8.93998V9.08998C10 7.48998 11.12 6.82998 12.51 7.61998Z" fill="white"/>
<defs>
<linearGradient id="paint0_linear" x1="17.4813" y1="-7.58885" x2="-2.35241" y2="-2.33332" gradientUnits="userSpaceOnUse">
<stop stop-color="#00A0FF"/>
<stop offset="0.01" stop-color="#00A1FF"/>
<stop offset="0.26" stop-color="#00BEFF"/>
<stop offset="0.51" stop-color="#00D2FF"/>
<stop offset="0.76" stop-color="#00DFFF"/>
<stop offset="1" stop-color="#00E3FF"/>
</linearGradient>
<linearGradient id="paint1_linear" x1="33.8299" y1="9.79966" x2="9.6399" y2="9.79966" gradientUnits="userSpaceOnUse">
<stop stop-color="#FFE000"/>
<stop offset="0.41" stop-color="#FFBD00"/>
<stop offset="0.78" stop-color="#FFA500"/>
<stop offset="1" stop-color="#FF9C00"/>
</linearGradient>
<linearGradient id="paint2_linear" x1="10.0875" y1="13.5194" x2="-5.87404" y2="40.3186" gradientUnits="userSpaceOnUse">
<stop stop-color="#FF3A44"/>
<stop offset="1" stop-color="#C31162"/>
</linearGradient>
<linearGradient id="paint3_linear" x1="0.714868" y1="4.0989" x2="7.83717" y2="16.0667" gradientUnits="userSpaceOnUse">
<stop stop-color="#32A071"/>
<stop offset="0.07" stop-color="#2DA771"/>
<stop offset="0.48" stop-color="#15CF74"/>
<stop offset="0.8" stop-color="#06E775"/>
<stop offset="1" stop-color="#00F076"/>
</linearGradient>
</defs>
</svg>
