<svg width="120" height="40" viewBox="0 0 120 40" fill="none" xmlns="http://www.w3.org/2000/svg">
<path d="M110.135 -2.25879e-05H9.53468C9.16798 -2.25879e-05 8.80568 -2.25881e-05 8.43995 0.00197741C8.1338 0.00397741 7.83009 0.00978741 7.521 0.0146774C6.84951 0.0225792 6.17961 0.0816537 5.5171 0.191387C4.85552 0.30351 4.21467 0.514893 3.61622 0.818387C3.0185 1.12445 2.47235 1.52214 1.99757 1.99705C1.5203 2.47061 1.12246 3.01799 0.81935 3.61814C0.5154 4.21709 0.304641 4.85892 0.19435 5.52146C0.0830109 6.18316 0.0230984 6.8525 0.01515 7.52346C0.00587 7.83006 0.00489 8.13768 0 8.44432V31.5586C0.00489 31.8691 0.00587 32.1699 0.01515 32.4805C0.0231008 33.1514 0.0830134 33.8207 0.19435 34.4824C0.304336 35.1453 0.515108 35.7875 0.81935 36.3867C1.12233 36.9849 1.52022 37.53 1.99757 38.001C2.47054 38.478 3.01705 38.876 3.61622 39.1797C4.21467 39.484 4.85545 39.6966 5.5171 39.8105C6.17972 39.9193 6.84956 39.9784 7.521 39.9873C7.83009 39.9941 8.1338 39.998 8.43995 39.998C8.80567 40 9.168 40 9.53468 40H110.135C110.494 40 110.859 40 111.219 39.998C111.523 39.998 111.836 39.9941 112.141 39.9873C112.811 39.9789 113.479 39.9198 114.141 39.8105C114.804 39.6958 115.448 39.4832 116.049 39.1797C116.647 38.8758 117.193 38.4778 117.666 38.001C118.142 37.5282 118.541 36.9834 118.848 36.3867C119.15 35.7871 119.358 35.1449 119.467 34.4824C119.578 33.8206 119.64 33.1515 119.652 32.4805C119.656 32.1699 119.656 31.8691 119.656 31.5586C119.664 31.1953 119.664 30.834 119.664 30.4648V9.53611C119.664 9.1699 119.664 8.80662 119.656 8.44432C119.656 8.13768 119.656 7.83006 119.652 7.52342C119.64 6.8524 119.578 6.18321 119.467 5.52142C119.358 4.85926 119.149 4.21748 118.848 3.6181C118.23 2.41517 117.252 1.436 116.049 0.818297C115.448 0.515545 114.804 0.304218 114.141 0.191297C113.48 0.0810802 112.811 0.0219852 112.141 0.0145374C111.836 0.00965741 111.523 0.00379741 111.219 0.00184741C110.859 -0.000152588 110.494 -0.000152588 110.135 -0.000152588V-2.25879e-05Z" fill="#A6A6A6"/>
<path d="M8.44487 39.125C8.14019 39.125 7.84287 39.1211 7.54058 39.1143C6.91436 39.1061 6.2896 39.0516 5.67144 38.9512C5.09503 38.8519 4.53664 38.6672 4.0147 38.4033C3.49754 38.1415 3.02585 37.7982 2.6177 37.3867C2.20364 36.9799 1.85891 36.5082 1.59719 35.9902C1.33258 35.4688 1.14945 34.9099 1.05419 34.333C0.951311 33.7131 0.895651 33.0863 0.887687 32.458C0.881347 32.2471 0.873047 31.5449 0.873047 31.5449V8.44431C0.873047 8.44431 0.881887 7.7529 0.887737 7.54977C0.895363 6.92245 0.950699 6.29662 1.05327 5.6777C1.14871 5.09922 1.33197 4.53872 1.59673 4.0156C1.85749 3.49791 2.2003 3.02583 2.61187 2.61765C3.02297 2.20559 3.49617 1.86057 4.01421 1.59518C4.53495 1.33206 5.09228 1.1487 5.66753 1.05124C6.28772 0.949806 6.91465 0.894966 7.54304 0.887179L8.44536 0.874969H111.214L112.127 0.887669C112.75 0.895069 113.371 0.949419 113.985 1.05026C114.566 1.14894 115.13 1.33359 115.656 1.59811C116.694 2.13296 117.539 2.97913 118.071 4.01804C118.332 4.53755 118.512 5.09348 118.607 5.66696C118.71 6.29096 118.768 6.92171 118.78 7.55417C118.783 7.83737 118.783 8.14157 118.783 8.44431C118.791 8.81931 118.791 9.17624 118.791 9.5361V30.4648C118.791 30.8281 118.791 31.1826 118.783 31.54C118.783 31.8652 118.783 32.1631 118.779 32.4697C118.768 33.0908 118.711 33.7103 118.608 34.3232C118.515 34.9042 118.333 35.4675 118.068 35.9932C117.805 36.5056 117.462 36.9732 117.053 37.3789C116.644 37.7927 116.172 38.1379 115.653 38.4014C115.128 38.6674 114.566 38.8527 113.985 38.9512C113.367 39.0521 112.742 39.1067 112.116 39.1143C111.823 39.1211 111.517 39.125 111.219 39.125L110.135 39.127L8.44487 39.125Z" fill="black"/>
<path d="M24.769 20.3006C24.7908 18.6042 25.6802 17.0371 27.1256 16.1486C26.2096 14.8405 24.7305 14.0408 23.1344 13.9909C21.4552 13.8146 19.8272 14.9957 18.9715 14.9957C18.0992 14.9957 16.7817 14.0084 15.363 14.0376C13.4963 14.0979 11.7982 15.1335 10.8901 16.7655C8.95607 20.1139 10.3987 25.0349 12.2513 27.7415C13.1782 29.0669 14.2615 30.5473 15.6789 30.4948C17.066 30.4373 17.584 29.6104 19.2583 29.6104C20.9171 29.6104 21.4031 30.4948 22.8493 30.4615C24.3377 30.4373 25.2754 29.1302 26.1698 27.7923C26.8358 26.848 27.3483 25.8042 27.6882 24.6998C25.9205 23.9521 24.7711 22.22 24.769 20.3006Z" fill="white"/>
<path d="M22.0371 12.2109C22.8486 11.2367 23.2484 9.98448 23.1516 8.72025C21.9118 8.85047 20.7665 9.44303 19.944 10.3799C19.1319 11.3042 18.7204 12.5134 18.8003 13.7412C20.0568 13.7542 21.2498 13.1901 22.0371 12.2109Z" fill="white"/>
<path fill-rule="evenodd" clip-rule="evenodd" d="M37.5688 27.1396H42.3022L43.438 30.4961H45.477L40.9936 18.0781H38.9106L34.4272 30.4961H36.4321L37.5688 27.1396ZM41.8111 25.5908H38.0591L39.9097 20.1435H39.9615L41.8111 25.5908Z" fill="white"/>
<path fill-rule="evenodd" clip-rule="evenodd" d="M51.3814 30.5908C53.6538 30.5908 55.1597 28.7832 55.1597 25.9697C55.1597 23.164 53.645 21.3476 51.3472 21.3476C50.1648 21.3095 49.0572 21.9245 48.4644 22.9482H48.4302V21.4424H46.6313V33.4912H48.4897V29.0068H48.5327C49.1003 30.037 50.2068 30.6522 51.3814 30.5908ZM50.857 22.9316C52.3023 22.9316 53.2495 24.1367 53.2495 25.9697C53.2495 27.8193 52.3023 29.0156 50.857 29.0156C49.437 29.0156 48.482 27.7939 48.482 25.9697C48.482 24.1621 49.437 22.9316 50.857 22.9316Z" fill="white"/>
<path fill-rule="evenodd" clip-rule="evenodd" d="M61.3462 30.5908C63.6187 30.5908 65.1245 28.7832 65.1245 25.9697C65.1245 23.164 63.6099 21.3476 61.312 21.3476C60.1296 21.3095 59.022 21.9245 58.4292 22.9482H58.395V21.4423H56.5962V33.4912H58.4546V29.0068H58.4976C59.0652 30.037 60.1716 30.6522 61.3462 30.5908ZM60.8218 22.9316C62.2671 22.9316 63.2144 24.1367 63.2144 25.9697H63.2144C63.2144 27.8193 62.2671 29.0156 60.8218 29.0156C59.4019 29.0156 58.4468 27.7939 58.4468 25.9697C58.4468 24.1621 59.4019 22.9316 60.8218 22.9316Z" fill="white"/>
<path d="M71.7105 27.0361C71.8482 28.2675 73.0445 29.0761 74.6792 29.0761C76.2456 29.0761 77.3726 28.2675 77.3726 27.1571C77.3726 26.1933 76.6929 25.6161 75.0835 25.2206L73.4742 24.8329C71.1939 24.2821 70.1353 23.2157 70.1353 21.4853C70.1353 19.3427 72.0025 17.871 74.6538 17.871C77.2778 17.871 79.0767 19.3427 79.1372 21.4853H77.2612C77.1489 20.246 76.1245 19.498 74.6274 19.498C73.1304 19.498 72.106 20.2548 72.106 21.3564C72.106 22.2343 72.7603 22.7509 74.3608 23.1464L75.729 23.4823C78.2769 24.0848 79.3355 25.1083 79.3355 26.9247C79.3355 29.2479 77.4849 30.703 74.5415 30.703C71.7876 30.703 69.9282 29.2821 69.8081 27.036L71.7105 27.0361Z" fill="white"/>
<path d="M83.3462 19.2998V21.4424H85.0679V22.914H83.3462V27.9052C83.3462 28.6806 83.6909 29.042 84.4477 29.042C84.6521 29.0384 84.8562 29.024 85.0591 28.999V30.4619C84.7188 30.5254 84.3729 30.5542 84.0268 30.5478C82.1938 30.5478 81.479 29.8593 81.479 28.1035V22.914H80.1626V21.4424H81.479V19.2998H83.3462Z" fill="white"/>
<path fill-rule="evenodd" clip-rule="evenodd" d="M90.3589 21.331C87.7427 21.331 86.0649 23.1211 86.0649 25.9697C86.0649 28.8261 87.726 30.6084 90.3589 30.6084C92.9927 30.6084 94.6538 28.8261 94.6538 25.9697C94.6538 23.121 92.9839 21.331 90.3589 21.331ZM90.3589 22.8623C91.8647 22.8623 92.7603 24.0156 92.7603 25.9697H92.7602C92.7602 27.9316 91.8647 29.0761 90.3589 29.0761C88.853 29.0761 87.9585 27.9316 87.9585 25.9697C87.9585 24.0244 88.853 22.8623 90.3589 22.8623Z" fill="white"/>
<path d="M96.186 21.4423H97.9585V22.9833H98.0015C98.2487 21.9913 99.1576 21.3086 100.179 21.3476C100.393 21.3468 100.607 21.3701 100.816 21.4169V23.1552C100.546 23.0726 100.264 23.0347 99.981 23.0429C99.4346 23.0208 98.9059 23.2385 98.5335 23.639C98.1612 24.0394 97.9826 24.5826 98.0444 25.1259V30.496H96.186L96.186 21.4423Z" fill="white"/>
<path fill-rule="evenodd" clip-rule="evenodd" d="M105.486 30.6084C107.534 30.6084 109.134 29.4804 109.384 27.8369L107.62 27.8369C107.281 28.677 106.431 29.1948 105.529 29.1103C104.853 29.1352 104.198 28.8684 103.732 28.3777C103.266 27.8871 103.034 27.2199 103.093 26.5459V26.4336H109.488V25.7968C109.488 23.0517 107.913 21.331 105.408 21.331C102.861 21.331 101.217 23.1728 101.217 26.0127C101.217 28.8437 102.852 30.6084 105.486 30.6084ZM107.628 25.1347L103.102 25.1347C103.1 24.5235 103.343 23.9369 103.776 23.5054C104.209 23.0739 104.796 22.8332 105.408 22.8369C106.014 22.8239 106.599 23.0644 107.02 23.5006C107.442 23.9368 107.662 24.5291 107.628 25.1347Z" fill="white"/>
<path fill-rule="evenodd" clip-rule="evenodd" d="M39.9317 9.54883C39.3879 8.97451 38.6151 8.67435 37.8262 8.73096H35.6709V14.6978H37.8262C39.6035 14.6978 40.6338 13.6021 40.6338 11.6958C40.7333 10.9111 40.4756 10.1232 39.9317 9.54883ZM37.7226 13.854H36.5976V9.57417H37.7226C38.2835 9.54305 38.8289 9.76418 39.2096 10.1771C39.5904 10.59 39.7668 11.1515 39.6904 11.708C39.7728 12.2668 39.5989 12.8329 39.2172 13.2492C38.8355 13.6655 38.2865 13.8877 37.7226 13.854Z" fill="white"/>
<path fill-rule="evenodd" clip-rule="evenodd" d="M42.6792 10.4286C41.9903 10.8561 41.6033 11.6372 41.6805 12.4443C41.6018 13.2523 41.9885 14.0349 42.678 14.4634C43.3676 14.8918 44.2405 14.8918 44.93 14.4634C45.6196 14.0349 46.0062 13.2523 45.9276 12.4443C46.0048 11.6372 45.6178 10.8561 44.9288 10.4286C44.2399 10.0011 43.3682 10.0011 42.6792 10.4286ZM43.8055 10.8974C44.575 10.8974 45.0135 11.4682 45.0135 12.4443H45.0135C45.0135 13.4243 44.575 13.9946 43.8055 13.9946C43.0331 13.9946 42.5985 13.4282 42.5985 12.4443C42.5985 11.4682 43.033 10.8974 43.8055 10.8974Z" fill="white"/>
<path d="M51.5732 14.6977H50.6514L49.7207 11.3813H49.6504L48.7236 14.6977H47.8105L46.5693 10.1948H47.4707L48.2773 13.6308H48.3438L49.2695 10.1948H50.1221L51.0479 13.6308H51.1182L51.9209 10.1948H52.8096L51.5732 14.6977Z" fill="white"/>
<path d="M53.8535 10.1948H54.709V10.9101H54.7754C55.0063 10.3835 55.546 10.0613 56.1191 10.1079C56.563 10.0745 56.9979 10.2448 57.3011 10.5706C57.6043 10.8964 57.7429 11.3424 57.6777 11.7827V14.6977H56.7891V12.0058C56.7891 11.2822 56.4746 10.9223 55.8174 10.9223C55.5164 10.9083 55.2242 11.0265 55.0175 11.2458C54.8109 11.4651 54.7103 11.7638 54.7422 12.0635V14.6977H53.8535L53.8535 10.1948Z" fill="white"/>
<path d="M59.0938 8.43698H59.9824V14.6977H59.0938V8.43698Z" fill="white"/>
<path fill-rule="evenodd" clip-rule="evenodd" d="M62.2165 10.4285C61.5275 10.856 61.1404 11.6371 61.2176 12.4443C61.139 13.2523 61.5257 14.0349 62.2153 14.4633C62.9049 14.8918 63.7778 14.8918 64.4674 14.4633C65.157 14.0349 65.5437 13.2523 65.4651 12.4443C65.5423 11.6371 65.1552 10.856 64.4662 10.4285C63.7772 10.001 62.9055 10.001 62.2165 10.4285ZM63.3426 10.8974C64.1121 10.8974 64.5506 11.4682 64.5506 12.4443H64.5506C64.5506 13.4243 64.1121 13.9946 63.3426 13.9946C62.5701 13.9946 62.1356 13.4282 62.1356 12.4443C62.1356 11.4682 62.5701 10.8974 63.3426 10.8974Z" fill="white"/>
<path fill-rule="evenodd" clip-rule="evenodd" d="M68.0757 12.08C67.0044 12.1464 66.4009 12.6137 66.4009 13.4243C66.4024 13.8086 66.5664 14.1744 66.8524 14.4311C67.1384 14.6879 67.5196 14.8117 67.9019 14.7719C68.4472 14.7971 68.9638 14.527 69.2544 14.0649H69.3247V14.6977H70.1802V11.6211C70.1802 10.6699 69.5435 10.1079 68.4145 10.1079C67.3931 10.1079 66.6655 10.604 66.5747 11.3774H67.4351C67.5337 11.059 67.8774 10.8769 68.3735 10.8769C68.981 10.8769 69.2954 11.1455 69.2954 11.6211V12.0097L68.0757 12.08ZM69.2954 12.663V13.0395C69.276 13.3265 69.1409 13.5933 68.9211 13.7789C68.7013 13.9644 68.4156 14.0528 68.1294 14.0239C67.646 14.0239 67.2944 13.788 67.2944 13.3828C67.2944 12.9858 67.5757 12.7749 68.1958 12.7334L69.2954 12.663Z" fill="white"/>
<path fill-rule="evenodd" clip-rule="evenodd" d="M73.2173 10.1201C72.0796 10.1201 71.3481 11.0215 71.3481 12.4443C71.3481 13.8706 72.0718 14.772 73.2173 14.7719C73.7981 14.7933 74.3427 14.4907 74.6314 13.9863H74.7017V14.6977H75.5532V8.43698H74.6646V10.9101H74.5981C74.3298 10.4015 73.7918 10.0936 73.2173 10.1201ZM73.4693 13.9741C72.7163 13.9741 72.2661 13.3994 72.2661 12.4443H72.2661C72.2661 11.4971 72.7212 10.9184 73.4693 10.9184C74.2134 10.9184 74.6812 11.5098 74.6812 12.4482C74.6812 13.3911 74.2183 13.9741 73.4693 13.9741Z" fill="white"/>
<path fill-rule="evenodd" clip-rule="evenodd" d="M80.2285 10.4286C79.5396 10.8561 79.1526 11.6372 79.2298 12.4443C79.1511 13.2523 79.5378 14.0349 80.2273 14.4634C80.9169 14.8918 81.7898 14.8918 82.4794 14.4634C83.1689 14.0349 83.5556 13.2523 83.4769 12.4443C83.5541 11.6372 83.1671 10.8561 82.4781 10.4286C81.7892 10.0011 80.9175 10.0011 80.2285 10.4286ZM81.3548 10.8974C82.1243 10.8974 82.5628 11.4682 82.5628 12.4443C82.5628 13.4243 82.1243 13.9946 81.3548 13.9946C80.5824 13.9946 80.1478 13.4282 80.1478 12.4443C80.1478 11.4682 80.5823 10.8974 81.3548 10.8974Z" fill="white"/>
<path d="M84.6694 10.1948H85.5249V10.9101H85.5913C85.8222 10.3835 86.3619 10.0613 86.9351 10.1079C87.3789 10.0745 87.8138 10.2448 88.117 10.5706C88.4202 10.8964 88.5588 11.3424 88.4937 11.7827V14.6977H87.605V12.0058C87.605 11.2822 87.2905 10.9223 86.6333 10.9223C86.3323 10.9083 86.0401 11.0265 85.8335 11.2458C85.6268 11.4651 85.5262 11.7638 85.5581 12.0635V14.6977H84.6694V10.1948Z" fill="white"/>
<path d="M93.5151 9.0737V10.2153H94.4907V10.9638H93.5151V13.2793C93.5151 13.751 93.7095 13.9575 94.1519 13.9575C94.2651 13.9571 94.3783 13.9503 94.4907 13.937V14.6772C94.3311 14.7058 94.1694 14.721 94.0073 14.7226C93.019 14.7226 92.6255 14.375 92.6255 13.5068V10.9638H91.9106V10.2153H92.6255V9.0737H93.5151Z" fill="white"/>
<path d="M95.7046 8.43698H96.5854V10.9184H96.6558C96.8978 10.3871 97.4469 10.0646 98.0288 10.1118C98.4701 10.0878 98.8991 10.2618 99.199 10.5864C99.4989 10.911 99.6384 11.3525 99.5795 11.7905V14.6977H98.69V12.0097C98.69 11.2905 98.355 10.9262 97.7271 10.9262C97.4179 10.9009 97.1133 11.0133 96.8947 11.2334C96.6761 11.4535 96.5658 11.7588 96.5933 12.0678V14.6977H95.7046L95.7046 8.43698Z" fill="white"/>
<path fill-rule="evenodd" clip-rule="evenodd" d="M102.81 14.7846C103.69 14.8801 104.512 14.3313 104.761 13.4819L103.906 13.4819C103.693 13.8643 103.269 14.08 102.835 14.0278C102.499 14.0315 102.178 13.8936 101.95 13.648C101.721 13.4024 101.607 13.0719 101.635 12.7378V12.688H104.815V12.3779C104.815 10.9639 104.059 10.1079 102.806 10.1079C102.204 10.1028 101.63 10.3591 101.231 10.8104C100.833 11.2618 100.65 11.8638 100.73 12.4604C100.648 13.0554 100.832 13.6565 101.232 14.104C101.633 14.5516 102.21 14.8005 102.81 14.7846ZM103.91 12.0307H101.635C101.631 11.7202 101.753 11.4213 101.972 11.2016C102.192 10.982 102.491 10.8603 102.801 10.8642C103.108 10.8572 103.403 10.9799 103.614 11.202C103.825 11.4242 103.932 11.7251 103.91 12.0307Z" fill="white"/>
</svg>
