<svg width="160" height="162" viewBox="0 0 160 162" fill="none" xmlns="http://www.w3.org/2000/svg">
<rect width="159.995" height="161.58" fill="#ED1F25"/>
<path fill-rule="evenodd" clip-rule="evenodd" d="M94.3952 46.1282C94.1293 46.3561 93.751 46.6804 93.3155 46.8793C92.2185 47.38 92.0058 48.1137 92.3434 49.1961C92.5896 49.9701 92.7867 50.7611 92.9833 51.5503C93.0688 51.8935 93.1542 52.2363 93.2435 52.5772L93.6115 52.782C93.8095 52.5334 94.0131 52.2889 94.2165 52.0445C94.7285 51.4294 95.2394 50.8155 95.6582 50.1423C96.0767 49.4684 96.5808 48.9497 97.2852 49.2591C97.9006 49.5291 98.4463 50.1322 98.839 50.6948C99.0324 50.9718 99.1423 51.3064 99.2519 51.6403C99.365 51.9846 99.4779 52.3283 99.6818 52.6076C100.872 54.2403 102.08 55.8607 103.288 57.4811C104.795 59.5024 106.302 61.5238 107.775 63.5691C108.436 64.4816 109.232 64.8056 110.251 65.0543C111.366 65.3274 112.459 65.6912 113.552 66.055C114.021 66.2114 114.491 66.3678 114.963 66.517C114.936 66.6532 114.909 66.7904 114.881 66.9266H107.963C107.9 66.781 107.844 66.6284 107.787 66.4748C107.663 66.1371 107.538 65.7949 107.33 65.5134C104.355 61.5092 101.373 57.5107 98.3833 53.5179C97.5338 52.3826 96.4773 52.3027 95.4725 53.2692C94.954 53.7676 94.4292 54.2603 93.8657 54.7891C93.6074 55.0315 93.3411 55.2815 93.0635 55.5432C92.8414 54.9949 92.621 54.4584 92.4037 53.9296C91.8745 52.6418 91.364 51.3994 90.8942 50.1423C90.4542 48.9688 89.904 47.9966 88.6224 47.5274C88.1117 47.3403 87.6453 47.0323 87.1578 46.7105C86.9333 46.5622 86.7042 46.411 86.4643 46.2672C84.4247 48.2128 81.7876 48.8743 78.998 49.5741C78.6868 49.6521 78.3737 49.7307 78.0593 49.8115L79.0348 56.189C78.7004 56.0907 78.3716 55.9942 78.0476 55.8989C76.5649 55.4633 75.1799 55.0564 73.7949 54.6464C72.7079 54.3257 71.261 55.0279 70.8492 56.1091C70.6449 56.6458 70.4395 57.1825 70.234 57.7194C69.369 59.9798 68.5023 62.2444 67.7077 64.5311C67.5395 65.0151 67.5417 65.5556 67.544 66.1333C67.5451 66.4098 67.5462 66.6949 67.5288 66.9862H60.1026C60.7552 65.9286 61.7048 65.582 62.6995 65.321C63.0101 65.24 63.3577 65.1724 63.6638 65.2287C65.5293 65.5741 66.2629 64.6132 66.7231 62.9446C67.0597 61.7205 67.4899 60.5232 67.9199 59.3265C68.2574 58.387 68.5949 57.4478 68.8868 56.4962C69.1704 55.5736 69.275 54.5722 69.3088 53.6011C69.3549 52.2847 70.6702 51.3744 71.7774 52.2082C72.8293 53.0003 73.9963 53.2178 75.259 53.453C75.9332 53.5786 76.6348 53.7093 77.3605 53.9353C77.2498 53.5824 77.1455 53.2457 77.0451 52.9213C76.7549 51.9838 76.4967 51.1497 76.205 50.328C76.151 50.1682 75.8134 50.0568 75.5884 50.0141C74.8638 49.8759 74.1375 49.7461 73.4112 49.6163C72.2631 49.4112 71.1151 49.2061 69.9738 48.9677C69.0736 48.7798 68.6494 49.0599 68.3985 49.9331C68.2006 50.6242 67.931 51.2942 67.6403 52.0163C67.508 52.345 67.3713 52.6846 67.2351 53.0419C66.6773 52.8719 66.1226 52.7039 65.5703 52.5366C64.3055 52.1535 63.0524 51.7739 61.7994 51.3823C59.63 50.7049 59.0461 51.002 58.3428 53.1319C57.9369 54.3578 57.5268 55.5836 57.1167 56.8095C56.5105 58.6216 55.9042 60.4337 55.3116 62.2459C55.2342 62.4831 55.1516 62.7197 55.0691 62.9562C54.5694 64.3877 54.0726 65.8113 54.7591 67.2945H46.7906C47.7853 65.9184 48.9105 65.4189 50.2269 65.285C51.5186 65.1525 52.1576 65.0878 52.5679 64.7474C52.9732 64.4111 53.1552 63.8058 53.5226 62.6003C53.9201 61.2963 54.323 59.9942 54.7258 58.6925C55.413 56.4717 56.1 54.2517 56.7597 52.0236C56.93 51.4486 56.9471 50.8221 56.9639 50.2077C56.9665 50.1117 56.9692 50.0159 56.9724 49.9207C57.0016 49.0903 57.1468 48.3792 58.0975 48.1542C58.9594 47.955 59.6705 48.0866 60.1409 48.9575C60.3122 49.2585 60.5838 49.4899 60.9082 49.6113C61.5627 49.8205 62.2239 50.0086 62.885 50.1967C63.7026 50.4294 64.5201 50.662 65.3245 50.9345C65.9906 51.1606 66.2956 50.9525 66.5532 50.3899C66.7826 49.8862 67.0306 49.3901 67.2918 48.8676C67.4099 48.6313 67.5307 48.3897 67.6537 48.1395C65.5282 46.6869 63.9485 44.9227 64.1656 41.9679C63.7944 42.2879 63.4514 42.5935 63.124 42.8851C62.4602 43.4765 61.8608 44.0106 61.221 44.4906C57.5935 47.2113 53.4494 48.5615 48.9746 49.0115C48.0036 49.1094 47.4297 48.7516 47.18 47.8132C46.9762 47.046 46.7466 46.2826 46.5171 45.5192C46.0242 43.88 45.5314 42.241 45.2942 40.566C44.8205 37.2208 46.6275 34.7443 49.1783 32.7944C50.1489 32.0527 51.1524 31.3546 52.201 30.6252C52.678 30.2934 53.1642 29.9552 53.661 29.6034C52.0711 27.3317 50.3811 25.2231 47.8686 24.234C46.2978 25.0138 44.8576 26.6532 44.4503 28.3972C44.2554 29.2344 44.1439 30.0908 44.0323 30.9477C43.9346 31.6984 43.8369 32.4494 43.6829 33.1882C43.5704 33.7294 43.1439 34.5328 42.7378 34.616C41.8117 34.8062 41.2582 34.0287 41.0635 33.2006C40.9184 32.5862 40.8688 31.8684 41.0399 31.2731C41.9749 28.0191 43.7043 25.4402 46.3687 23.7997C46.1797 23.7648 45.9873 23.7311 45.7892 23.7075C43.5985 23.443 40.7811 25.7755 40.1847 28.3319C39.9898 29.1691 39.8783 30.0258 39.7668 30.883C39.6691 31.634 39.5713 32.3853 39.4174 33.1241C39.3048 33.6641 38.8784 34.4675 38.4711 34.5508C37.5462 34.7409 36.9926 33.9646 36.798 33.1353C36.6528 32.521 36.6033 31.8042 36.7743 31.2079C38.0075 26.912 40.6247 23.7874 44.9555 22.4563C46.5139 21.9769 47.9158 22.058 49.185 22.5339L49.221 22.5215C52.5459 21.501 55.1586 23.02 57.2717 25.4954C58.0289 26.3843 58.6567 27.3992 59.2306 28.4208C59.3306 28.6127 59.4605 28.7874 59.6154 28.9384C60.0587 28.9485 60.5009 28.9733 60.9375 29.0217C63.3611 29.2861 64.9397 30.7938 65.5428 33.1117C65.8569 34.3166 66.0304 35.558 66.2066 36.8187C66.2861 37.3873 66.3661 37.96 66.4598 38.535C66.5639 38.5287 66.6654 38.5007 66.758 38.4529C72.6551 34.8422 78.5364 35.2765 84.4098 38.5125C84.5191 38.566 84.623 38.6296 84.7203 38.7027C85.8342 39.6546 86.8807 39.6985 88.1465 38.8152C89.4618 37.8959 90.9853 37.9893 92.4537 38.6307C92.7328 38.7524 93.0162 38.8634 93.3296 38.9863C93.4711 39.0417 93.6186 39.0995 93.7746 39.1618C93.8547 38.9089 93.9296 38.6588 94.0036 38.4114C94.1625 37.8805 94.3174 37.3628 94.5116 36.8608C96.448 31.8762 100.24 29.0622 105.346 28.0844C110.778 27.0425 116.01 27.8762 120.883 30.5688C124.146 32.3736 126.605 34.9108 127.86 38.5114C128.867 41.3946 129.898 44.2699 130.958 47.2228C131.457 48.612 131.962 50.0185 132.473 51.4509C131.768 51.5033 131.09 51.566 130.432 51.6268C129.041 51.7555 127.735 51.8762 126.429 51.8762C126.09 51.8756 125.75 51.875 125.41 51.8745C120.315 51.866 115.217 51.8575 110.13 51.6264C106.28 51.4509 102.437 50.8377 98.9493 49.0543C97.8926 48.514 96.9462 47.7578 95.9822 46.9874C95.5389 46.6331 95.0918 46.2759 94.6286 45.9353C94.5658 45.9819 94.4872 46.0493 94.3952 46.1282ZM53.0072 25.429C53.7645 26.3179 54.3923 27.3339 54.9662 28.3544C55.3341 29.0093 55.6469 29.2242 56.466 29.1207C56.7968 29.0779 57.1265 29.043 57.4641 29.0138C55.9304 26.8951 54.2438 25.0093 51.7864 24.1688C52.2205 24.5617 52.6283 24.9827 53.0072 25.429Z" fill="white"/>
<path fill-rule="evenodd" clip-rule="evenodd" d="M58.8364 99.9156L48.6288 66.876L37.8857 66.8782L27.6792 99.9156H37.2432L38.2401 95.9967H48.2249L49.2724 99.9156H58.8364ZM43.2516 79.1336L45.1194 86.7432H41.3388L43.2516 79.1336Z" fill="white"/>
<path d="M83.0381 66.876V99.9156H73.9242L67.3982 87.9741V99.9156H58.5093V66.876H67.5771L73.3155 79.8628V66.876H83.0381Z" fill="white"/>
<path d="M105.497 66.876V76.44H98.9354V99.9156H89.3714V76.4456H82.7588V66.8816L105.497 66.876Z" fill="white"/>
<path d="M115.386 66.5564C116.991 66.4961 118.599 66.5649 120.193 66.7624C121.848 66.9747 123.475 67.3639 125.046 67.9235C124.995 68.3016 124.965 68.682 124.955 69.0633V70.1795C124.955 70.6813 124.94 71.4408 124.909 72.458C124.878 73.4752 124.803 75.017 124.684 77.0836C123.583 76.6471 122.456 76.2818 121.308 75.9899C120.153 75.6807 118.982 75.4373 117.799 75.2608C117.215 75.1992 116.625 75.2144 116.045 75.3058C115.504 75.3893 114.995 75.611 114.565 75.9494C114.231 76.2847 114.177 76.6343 114.406 76.9981C114.618 77.3464 114.906 77.6422 115.248 77.8633L120.443 79.5511C121.509 79.8722 122.523 80.3479 123.451 80.9632C124.339 81.5506 125.138 82.2643 125.82 83.0819C126.485 83.8801 127.017 84.7801 127.396 85.7474C127.779 86.7354 127.972 87.7866 127.966 88.8462C127.995 90.4574 127.744 91.9082 127.213 93.1984C126.705 94.4572 125.954 95.604 125.004 96.5739C124.028 97.5545 122.876 98.3427 121.609 98.8974C120.241 99.5027 118.789 99.8946 117.303 100.06C117.09 100.09 116.771 100.113 116.345 100.128C115.92 100.144 115.464 100.152 114.978 100.151C114.097 100.181 113.216 100.166 112.336 100.106C111.555 100.054 110.778 99.9472 110.012 99.7863C109.191 99.604 108.348 99.3763 107.482 99.1033C106.617 98.8302 105.501 98.4353 104.134 97.9185L106.321 88.1204C106.777 88.2705 107.233 88.4302 107.688 88.5998C108.144 88.7693 108.598 88.9407 109.052 89.114L111.19 89.8892C111.889 90.1623 112.58 90.4203 113.263 90.6633C113.975 90.9115 114.723 91.0344 115.477 91.0268C115.908 91.0135 116.329 90.8978 116.707 90.6892C117.04 90.4912 117.238 90.1341 117.299 89.618C117.303 89.2652 117.191 88.9209 116.98 88.638C116.763 88.3464 116.493 88.0989 116.183 87.9089C115.858 87.709 115.515 87.5413 115.157 87.4082C114.793 87.2709 114.443 87.1584 114.11 87.0707C112.715 86.7487 111.389 86.1834 110.191 85.4009C109.042 84.6564 108.007 83.7504 107.117 82.7106C106.268 81.7209 105.577 80.6067 105.067 79.4071C104.579 78.2851 104.323 77.076 104.315 75.8526C104.311 74.8949 104.449 73.9418 104.722 73.024C104.998 72.1092 105.438 71.2524 106.021 70.4957C106.645 69.6916 107.4 68.9982 108.254 68.4445C109.239 67.8129 110.326 67.3561 111.467 67.0943C112.744 66.7452 114.061 66.5644 115.386 66.5564Z" fill="white"/>
<path d="M48.8934 112.574V126.319H42.1345V125.446C40.9265 125.87 39.6557 126.089 38.3753 126.092C37.0032 126.091 35.6416 125.853 34.3505 125.388C33.0338 124.92 31.812 124.219 30.7432 123.319C29.4948 122.288 28.5011 120.982 27.8391 119.504C26.6451 116.871 26.5508 113.87 27.577 111.167C28.0647 109.877 28.7971 108.692 29.7339 107.679C30.8779 106.439 32.3196 105.502 34.0591 104.866C35.77 104.239 37.578 103.918 39.4003 103.918C40.7848 103.92 42.161 104.131 43.4824 104.545C44.8257 104.957 46.09 105.592 47.2225 106.424L42.6284 111.392C42.0862 111.055 41.4974 110.799 40.881 110.633C40.3363 110.487 39.7752 110.411 39.2113 110.408C38.3505 110.398 37.4971 110.566 36.7044 110.902C35.9453 111.232 35.4011 111.624 35.0718 112.079C34.7207 112.528 34.4511 113.036 34.2751 113.579C34.1013 114.099 34.0113 114.644 34.0085 115.192C34.0069 115.768 34.1293 116.338 34.3674 116.863C34.627 117.421 35.008 117.914 35.4824 118.307C36.2954 119.024 37.3449 119.416 38.4293 119.407C39.4854 119.407 40.4674 119.053 41.375 118.344H38.9829L40.3117 112.534L48.8934 112.574Z" fill="white"/>
<path fill-rule="evenodd" clip-rule="evenodd" d="M71.5229 125.863L64.4984 104.069H56.7144L49.6899 125.863H56.9046L57.5887 123.357H63.6252L64.3094 125.863H71.5229ZM60.621 112.536L61.798 117.206H59.4092L60.621 112.536Z" fill="white"/>
<path d="M93.7361 104.069V125.863H86.5969V115.725C86.0156 116.485 85.402 117.27 84.7561 118.079C84.1103 118.889 83.5102 119.661 82.9558 120.396L79.3485 115.687V125.863H72.207V104.069H79.155L82.9525 108.928L86.7871 104.069L93.7361 104.069Z" fill="white"/>
<path d="M111.088 119.256V125.863H95.064V104.107H111.088V110.717H102.199V112.198H109.641V117.818H102.202V119.261L111.088 119.256Z" fill="white"/>
<path d="M120.199 103.84C121.29 103.817 122.38 103.874 123.462 104.011C124.678 104.175 125.874 104.462 127.033 104.866C127.006 105.145 126.987 105.38 126.975 105.57C126.963 105.76 126.956 105.956 126.956 106.158C126.956 106.437 126.944 106.969 126.919 107.752C126.894 108.536 126.831 109.752 126.729 111.398C125.994 111.145 125.305 110.905 124.66 110.677C123.962 110.436 123.244 110.258 122.514 110.145C122.065 110.048 121.604 110.023 121.147 110.069C120.768 110.12 120.501 110.209 120.349 110.335C120.197 110.461 120.166 110.6 120.254 110.752C120.343 110.904 120.577 111.018 120.957 111.09L123.657 112.115C124.391 112.381 125.092 112.731 125.745 113.159C126.361 113.561 126.922 114.04 127.416 114.583C127.891 115.102 128.272 115.699 128.541 116.349C128.812 117.018 128.947 117.734 128.94 118.456C128.979 119.445 128.797 120.431 128.409 121.341C128.039 122.187 127.51 122.954 126.851 123.601C126.166 124.264 125.36 124.793 124.478 125.158C123.527 125.557 122.523 125.819 121.498 125.936C121.271 125.968 121.043 125.987 120.814 125.993C120.51 126.005 120.206 126.012 119.903 126.012C119.296 126.037 118.687 126.025 118.081 125.974C117.498 125.923 116.979 125.86 116.523 125.785C116.042 125.657 115.479 125.499 114.836 125.31C114.192 125.121 113.325 124.836 112.235 124.455L113.83 117.507C114.386 117.657 114.924 117.828 115.443 118.02C115.962 118.212 116.481 118.408 117 118.608C117.519 118.811 118.044 118.988 118.576 119.139C119.124 119.293 119.682 119.406 120.247 119.477C120.431 119.457 120.611 119.405 120.779 119.325C120.938 119.239 121.049 119.085 121.083 118.907C121.083 118.738 121.015 118.575 120.892 118.457C120.758 118.326 120.607 118.212 120.442 118.12C120.255 118.014 120.058 117.925 119.854 117.854C119.638 117.779 119.442 117.716 119.265 117.664C118.298 117.443 117.374 117.063 116.531 116.539C115.727 116.047 114.998 115.441 114.368 114.739C113.779 114.085 113.298 113.342 112.943 112.537C112.611 111.796 112.436 110.995 112.431 110.183C112.405 108.866 112.804 107.651 113.627 106.537C114.451 105.423 115.748 104.652 117.519 104.222C117.963 104.098 118.414 104.003 118.869 103.937C119.31 103.874 119.754 103.841 120.199 103.84Z" fill="white"/>
</svg>
